<svg id="svg" version="1.1" xmlns="http://www.w3.org/2000/svg" xmlns:xlink="http://www.w3.org/1999/xlink" width="400" height="400" viewBox="0, 0, 400,400"><g id="svgg"><path id="path0" d="M0.214 109.800 C 0.509 228.511,0.305 222.600,4.830 243.600 C 19.305 310.788,70.505 367.536,136.492 389.531 C 266.184 432.760,400.166 336.211,399.506 200.000 C 399.004 96.599,324.129 13.118,221.205 1.203 C 212.459 0.191,194.083 -0.000,105.375 -0.000 L -0.059 -0.000 0.214 109.800 M167.238 48.203 C 177.283 54.972,174.171 68.121,161.674 71.715 C 120.112 83.668,86.979 115.514,72.472 157.452 C 68.236 169.697,66.037 171.985,58.494 171.995 C 47.572 172.008,43.555 164.229,47.674 151.041 C 60.353 110.451,90.977 75.311,129.772 56.837 C 150.159 47.129,161.698 44.469,167.238 48.203 M185.638 90.603 C 197.087 98.318,192.536 110.657,176.746 114.713 C 146.133 122.575,123.240 145.392,114.012 177.237 C 109.544 192.653,95.564 196.307,89.074 183.756 C 83.740 173.441,99.666 138.796,118.400 119.958 C 139.043 99.200,175.062 83.475,185.638 90.603 M202.983 133.571 C 215.360 139.189,210.314 157.600,196.399 157.600 C 177.305 157.600,156.800 177.441,156.800 195.915 C 156.800 203.166,150.783 209.600,144.000 209.600 C 120.468 209.600,131.935 163.308,160.290 143.838 C 173.934 134.470,194.218 129.592,202.983 133.571 M207.946 182.048 C 226.027 191.889,219.157 219.110,198.574 219.182 C 176.087 219.261,170.713 188.453,191.803 180.365 C 196.234 178.666,203.034 179.375,207.946 182.048 M260.827 191.400 C 277.165 199.646,263.634 240.187,238.942 256.972 C 225.023 266.434,204.526 271.473,197.107 267.257 C 185.249 260.519,190.311 243.200,204.139 243.200 C 222.845 243.200,242.400 222.800,242.400 203.286 C 242.400 193.468,252.288 187.090,260.827 191.400 M305.407 210.396 C 322.648 220.908,297.289 272.575,263.955 294.850 C 234.728 314.380,208.908 316.629,208.813 299.653 C 208.774 292.698,212.636 289.144,224.000 285.677 C 255.508 276.067,276.846 254.259,285.168 223.163 C 288.718 209.896,296.518 204.976,305.407 210.396 M347.807 228.796 C 354.295 232.751,355.057 238.657,350.770 251.754 C 335.758 297.617,298.488 335.275,252.373 351.176 C 236.453 356.665,227.815 353.282,227.815 341.557 C 227.815 334.388,230.936 331.420,242.544 327.552 C 282.429 314.262,313.831 282.684,326.824 242.800 C 331.676 227.905,338.680 223.231,347.807 228.796 " stroke="none" fill="#000000" fill-rule="evenodd"></path></g></svg>